<svg xmlns="http://www.w3.org/2000/svg" xmlns:xlink="http://www.w3.org/1999/xlink" width="500" zoomAndPan="magnify" viewBox="0 0 375 374.999991" height="500" preserveAspectRatio="xMidYMid meet" version="1.0"><defs><g/></defs><g fill="#000000" fill-opacity="1"><g transform="translate(150.058311, 183.099994)"><g><path d="M 3.015625 -10.171875 L 3.015625 -5.78125 L 8.796875 -5.78125 L 8.796875 -4.75 L 3.015625 -4.75 L 3.015625 0 L 1.828125 0 L 1.828125 -11.203125 L 9.5 -11.203125 L 9.5 -10.171875 Z M 3.015625 -10.171875 "/></g></g></g><g fill="#000000" fill-opacity="1"><g transform="translate(167.383904, 183.099994)"><g><path d="M 8.84375 -2.984375 L 2.609375 -2.984375 L 1.265625 0 L 0.03125 0 L 5.15625 -11.203125 L 6.3125 -11.203125 L 11.4375 0 L 10.1875 0 Z M 8.421875 -3.953125 L 5.734375 -9.96875 L 3.046875 -3.953125 Z M 8.421875 -3.953125 "/></g></g></g><g fill="#000000" fill-opacity="1"><g transform="translate(186.053171, 183.099994)"><g><path d="M 13.453125 -11.203125 L 13.453125 0 L 12.3125 0 L 12.3125 -8.953125 L 7.921875 -1.421875 L 7.359375 -1.421875 L 2.953125 -8.90625 L 2.953125 0 L 1.828125 0 L 1.828125 -11.203125 L 2.796875 -11.203125 L 7.65625 -2.890625 L 12.484375 -11.203125 Z M 13.453125 -11.203125 "/></g></g></g><g fill="#000000" fill-opacity="1"><g transform="translate(208.52952, 183.099994)"><g><path d="M 6.71875 0.09375 C 5.613281 0.09375 4.609375 -0.148438 3.703125 -0.640625 C 2.804688 -1.140625 2.101562 -1.820312 1.59375 -2.6875 C 1.082031 -3.550781 0.828125 -4.519531 0.828125 -5.59375 C 0.828125 -6.675781 1.082031 -7.648438 1.59375 -8.515625 C 2.101562 -9.378906 2.804688 -10.054688 3.703125 -10.546875 C 4.609375 -11.046875 5.613281 -11.296875 6.71875 -11.296875 C 7.832031 -11.296875 8.832031 -11.050781 9.71875 -10.5625 C 10.613281 -10.070312 11.316406 -9.390625 11.828125 -8.515625 C 12.335938 -7.648438 12.59375 -6.675781 12.59375 -5.59375 C 12.59375 -4.519531 12.335938 -3.546875 11.828125 -2.671875 C 11.316406 -1.804688 10.613281 -1.128906 9.71875 -0.640625 C 8.832031 -0.148438 7.832031 0.09375 6.71875 0.09375 Z M 6.71875 -0.953125 C 7.601562 -0.953125 8.398438 -1.148438 9.109375 -1.546875 C 9.828125 -1.953125 10.390625 -2.507812 10.796875 -3.21875 C 11.203125 -3.925781 11.40625 -4.71875 11.40625 -5.59375 C 11.40625 -6.46875 11.203125 -7.257812 10.796875 -7.96875 C 10.390625 -8.6875 9.828125 -9.242188 9.109375 -9.640625 C 8.398438 -10.035156 7.601562 -10.234375 6.71875 -10.234375 C 5.832031 -10.234375 5.03125 -10.035156 4.3125 -9.640625 C 3.59375 -9.242188 3.023438 -8.6875 2.609375 -7.96875 C 2.203125 -7.257812 2 -6.46875 2 -5.59375 C 2 -4.71875 2.203125 -3.925781 2.609375 -3.21875 C 3.023438 -2.507812 3.59375 -1.953125 4.3125 -1.546875 C 5.03125 -1.148438 5.832031 -0.953125 6.71875 -0.953125 Z M 6.71875 -0.953125 "/></g></g></g><g fill="#000000" fill-opacity="1"><g transform="translate(229.150313, 183.099994)"><g><path d="M 11.1875 -11.203125 L 11.1875 0 L 10.203125 0 L 3.015625 -9.09375 L 3.015625 0 L 1.828125 0 L 1.828125 -11.203125 L 2.796875 -11.203125 L 10.015625 -2.109375 L 10.015625 -11.203125 Z M 11.1875 -11.203125 "/></g></g></g><path stroke-linecap="butt" transform="matrix(0.749982, -0.00520926, 0.00520926, 0.749982, 84.417129, 193.820452)" fill="none" stroke-linejoin="miter" d="M -0.00235132 0.49981 L 277.483518 0.500054 " stroke="#000000" stroke-width="1" stroke-opacity="1" stroke-miterlimit="4"/><g fill="#000000" fill-opacity="1"><g transform="translate(216.257638, 211.577972)"><g><path d="M 9.453125 -5.59375 L 6.46875 0 L 5.609375 0 L 4.984375 -4.453125 L 2.546875 0 L 1.703125 0 L 0.953125 -5.59375 L 1.734375 -5.59375 L 2.34375 -1.03125 L 4.828125 -5.59375 L 5.5625 -5.59375 L 6.1875 -1.03125 L 8.65625 -5.59375 Z M 9.453125 -5.59375 "/></g></g></g><g fill="#000000" fill-opacity="1"><g transform="translate(227.665739, 211.577972)"><g><path d="M 2.1875 -4.90625 L 1.84375 -3.1875 L 4.65625 -3.1875 L 4.53125 -2.5 L 1.71875 -2.5 L 1.359375 -0.703125 L 4.625 -0.703125 L 4.484375 0 L 0.421875 0 L 1.53125 -5.59375 L 5.484375 -5.59375 L 5.359375 -4.90625 Z M 2.1875 -4.90625 "/></g></g></g><g fill="#000000" fill-opacity="1"><g transform="translate(235.425799, 211.577972)"><g><path d="M 4.75 -2.890625 C 5 -2.804688 5.191406 -2.664062 5.328125 -2.46875 C 5.472656 -2.28125 5.546875 -2.039062 5.546875 -1.75 C 5.546875 -1.1875 5.328125 -0.753906 4.890625 -0.453125 C 4.453125 -0.148438 3.859375 0 3.109375 0 L 0.421875 0 L 1.53125 -5.59375 L 4.015625 -5.59375 C 4.578125 -5.59375 5.007812 -5.488281 5.3125 -5.28125 C 5.625 -5.070312 5.78125 -4.769531 5.78125 -4.375 C 5.78125 -4.007812 5.6875 -3.695312 5.5 -3.4375 C 5.3125 -3.1875 5.0625 -3.003906 4.75 -2.890625 Z M 2.203125 -4.953125 L 1.84375 -3.15625 L 3.484375 -3.15625 C 3.929688 -3.15625 4.285156 -3.25 4.546875 -3.4375 C 4.816406 -3.625 4.953125 -3.890625 4.953125 -4.234375 C 4.953125 -4.472656 4.859375 -4.648438 4.671875 -4.765625 C 4.484375 -4.890625 4.207031 -4.953125 3.84375 -4.953125 Z M 3.171875 -0.640625 C 3.671875 -0.640625 4.054688 -0.734375 4.328125 -0.921875 C 4.609375 -1.117188 4.75 -1.394531 4.75 -1.75 C 4.75 -2.019531 4.648438 -2.210938 4.453125 -2.328125 C 4.265625 -2.453125 3.972656 -2.515625 3.578125 -2.515625 L 1.71875 -2.515625 L 1.34375 -0.640625 Z M 3.171875 -0.640625 "/></g></g></g><g fill="#000000" fill-opacity="1"><g transform="translate(243.881867, 211.577972)"><g/></g></g><g fill="#000000" fill-opacity="1"><g transform="translate(248.433897, 211.577972)"><g><path d="M 1.53125 -5.59375 L 3.734375 -5.59375 C 4.285156 -5.59375 4.765625 -5.5 5.171875 -5.3125 C 5.578125 -5.125 5.882812 -4.859375 6.09375 -4.515625 C 6.300781 -4.171875 6.40625 -3.765625 6.40625 -3.296875 C 6.40625 -2.648438 6.257812 -2.078125 5.96875 -1.578125 C 5.675781 -1.078125 5.265625 -0.6875 4.734375 -0.40625 C 4.210938 -0.132812 3.609375 0 2.921875 0 L 0.421875 0 Z M 2.9375 -0.703125 C 3.476562 -0.703125 3.945312 -0.8125 4.34375 -1.03125 C 4.75 -1.25 5.054688 -1.550781 5.265625 -1.9375 C 5.484375 -2.320312 5.59375 -2.757812 5.59375 -3.25 C 5.59375 -3.769531 5.425781 -4.175781 5.09375 -4.46875 C 4.769531 -4.757812 4.285156 -4.90625 3.640625 -4.90625 L 2.1875 -4.90625 L 1.359375 -0.703125 Z M 2.9375 -0.703125 "/></g></g></g><g fill="#000000" fill-opacity="1"><g transform="translate(257.441966, 211.577972)"><g><path d="M 2.1875 -4.90625 L 1.84375 -3.1875 L 4.65625 -3.1875 L 4.53125 -2.5 L 1.71875 -2.5 L 1.359375 -0.703125 L 4.625 -0.703125 L 4.484375 0 L 0.421875 0 L 1.53125 -5.59375 L 5.484375 -5.59375 L 5.359375 -4.90625 Z M 2.1875 -4.90625 "/></g></g></g><g fill="#000000" fill-opacity="1"><g transform="translate(265.202024, 211.577972)"><g><path d="M 2.140625 0.0625 C 1.722656 0.0625 1.320312 0 0.9375 -0.125 C 0.550781 -0.25 0.253906 -0.410156 0.046875 -0.609375 L 0.40625 -1.25 C 0.613281 -1.050781 0.878906 -0.894531 1.203125 -0.78125 C 1.535156 -0.664062 1.875 -0.609375 2.21875 -0.609375 C 2.675781 -0.609375 3.039062 -0.691406 3.3125 -0.859375 C 3.59375 -1.035156 3.734375 -1.269531 3.734375 -1.5625 C 3.734375 -1.726562 3.675781 -1.863281 3.5625 -1.96875 C 3.457031 -2.070312 3.328125 -2.15625 3.171875 -2.21875 C 3.015625 -2.28125 2.796875 -2.359375 2.515625 -2.453125 C 2.160156 -2.554688 1.875 -2.65625 1.65625 -2.75 C 1.4375 -2.84375 1.25 -2.984375 1.09375 -3.171875 C 0.9375 -3.367188 0.859375 -3.617188 0.859375 -3.921875 C 0.859375 -4.273438 0.957031 -4.582031 1.15625 -4.84375 C 1.351562 -5.101562 1.625 -5.300781 1.96875 -5.4375 C 2.320312 -5.582031 2.726562 -5.65625 3.1875 -5.65625 C 3.53125 -5.65625 3.859375 -5.613281 4.171875 -5.53125 C 4.484375 -5.457031 4.753906 -5.34375 4.984375 -5.1875 L 4.65625 -4.53125 C 4.457031 -4.6875 4.226562 -4.800781 3.96875 -4.875 C 3.707031 -4.945312 3.429688 -4.984375 3.140625 -4.984375 C 2.679688 -4.984375 2.316406 -4.894531 2.046875 -4.71875 C 1.773438 -4.539062 1.640625 -4.300781 1.640625 -4 C 1.640625 -3.832031 1.691406 -3.691406 1.796875 -3.578125 C 1.910156 -3.472656 2.046875 -3.382812 2.203125 -3.3125 C 2.367188 -3.25 2.59375 -3.175781 2.875 -3.09375 C 3.226562 -2.988281 3.515625 -2.890625 3.734375 -2.796875 C 3.953125 -2.703125 4.132812 -2.5625 4.28125 -2.375 C 4.4375 -2.195312 4.515625 -1.96875 4.515625 -1.6875 C 4.515625 -1.320312 4.410156 -1.007812 4.203125 -0.75 C 4.003906 -0.488281 3.726562 -0.285156 3.375 -0.140625 C 3.019531 -0.00390625 2.609375 0.0625 2.140625 0.0625 Z M 2.140625 0.0625 "/></g></g></g><g fill="#000000" fill-opacity="1"><g transform="translate(272.570083, 211.577972)"><g><path d="M 1.53125 -5.59375 L 2.34375 -5.59375 L 1.21875 0 L 0.421875 0 Z M 1.53125 -5.59375 "/></g></g></g><g fill="#000000" fill-opacity="1"><g transform="translate(277.450118, 211.577972)"><g><path d="M 4.859375 -2.828125 L 5.625 -2.828125 L 5.1875 -0.625 C 4.925781 -0.40625 4.613281 -0.234375 4.25 -0.109375 C 3.894531 0.00390625 3.53125 0.0625 3.15625 0.0625 C 2.613281 0.0625 2.140625 -0.0351562 1.734375 -0.234375 C 1.328125 -0.429688 1.015625 -0.707031 0.796875 -1.0625 C 0.585938 -1.414062 0.484375 -1.828125 0.484375 -2.296875 C 0.484375 -2.921875 0.625 -3.488281 0.90625 -4 C 1.1875 -4.507812 1.585938 -4.910156 2.109375 -5.203125 C 2.628906 -5.503906 3.234375 -5.65625 3.921875 -5.65625 C 4.410156 -5.65625 4.835938 -5.582031 5.203125 -5.4375 C 5.566406 -5.289062 5.863281 -5.078125 6.09375 -4.796875 L 5.515625 -4.3125 C 5.328125 -4.53125 5.097656 -4.691406 4.828125 -4.796875 C 4.566406 -4.898438 4.253906 -4.953125 3.890625 -4.953125 C 3.367188 -4.953125 2.910156 -4.835938 2.515625 -4.609375 C 2.117188 -4.378906 1.8125 -4.066406 1.59375 -3.671875 C 1.382812 -3.273438 1.28125 -2.832031 1.28125 -2.34375 C 1.28125 -1.820312 1.445312 -1.40625 1.78125 -1.09375 C 2.113281 -0.789062 2.597656 -0.640625 3.234375 -0.640625 C 3.703125 -0.640625 4.125 -0.757812 4.5 -1 Z M 4.859375 -2.828125 "/></g></g></g><g fill="#000000" fill-opacity="1"><g transform="translate(286.026189, 211.577972)"><g><path d="M 6.359375 -5.59375 L 5.234375 0 L 4.578125 0 L 2.078125 -4.3125 L 1.21875 0 L 0.421875 0 L 1.53125 -5.59375 L 2.1875 -5.59375 L 4.703125 -1.28125 L 5.546875 -5.59375 Z M 6.359375 -5.59375 "/></g></g></g></svg>